<svg xmlns="http://www.w3.org/2000/svg" fill="none" viewBox="0 0 500 500">
  <g clip-path="url(#a)">
    <mask id="b" width="500" height="500" x="0" y="0" maskUnits="userSpaceOnUse"
      style="mask-type:luminance">
      <path fill="#fff"
        d="M250 500c-66.745 0-129.594-25.979-176.76-73.24C25.98 379.594 0 316.745 0 250c0-66.745 25.98-129.594 73.24-176.76C120.406 25.98 183.255 0 250 0c66.745 0 129.594 25.98 176.76 73.24C474.021 120.505 500 183.255 500 250c0 66.745-25.979 129.594-73.24 176.76C379.594 474.021 316.745 500 250 500Zm0-485.01c-62.75 0-121.802 24.479-166.167 68.843C39.47 128.198 14.99 187.25 14.99 250s24.479 121.802 68.843 166.167C128.198 460.531 187.25 485.01 250 485.01s121.802-24.479 166.167-68.843C460.531 371.802 485.01 312.75 485.01 250s-24.479-121.802-68.843-166.167C371.802 39.47 312.75 14.99 250 14.99Z" />
    </mask>
    <g mask="url(#b)">
      <path fill="#1A1A1A" d="M550-50H-50v600h600V-50Z" />
    </g>
    <mask id="c" width="249" height="234" x="150" y="101" maskUnits="userSpaceOnUse"
      style="mask-type:luminance">
      <path fill="#fff" d="M150.667 101.901h247.614v232.766H150.667V101.901Z" />
    </mask>
    <g mask="url(#c)">
      <path fill="#E6E6E6"
        d="M355.036 144.599c-28.057-28.057-65.359-43.51-105.036-43.51-34.125 0-66.484 11.437-92.724 32.484-3.802 13.547-5.838 27.833-5.838 42.599 0 86.969 70.505 157.469 157.473 157.469 27 0 52.407-6.797 74.615-18.771 9.818-20.057 15.021-42.245 15.021-65.235 0-39.677-15.453-76.979-43.511-105.036Z" />
    </g>
    <mask id="d" width="295" height="163" x="104" y="101" maskUnits="userSpaceOnUse"
      style="mask-type:luminance">
      <path fill="#fff" d="M104 101.901h294.281V264H104V101.901Z" />
    </mask>
    <g mask="url(#d)">
      <path fill="#100F0D"
        d="M266.443 101.75c4.458-4.307 7.229-10.338 7.229-17.026 0-13.073-10.599-23.677-23.672-23.677-13.078 0-23.677 10.604-23.677 23.677 0 6.682 2.771 12.713 7.224 17.021-59.734 6.578-108.813 48.552-125.776 104.5-.037.099-2.636 10.344-2.636 10.344l-.75 2.953c1.683 2.984 4.881 4.984 8.511 4.984.198 0 .401-.01.604-.021l10.979-.677 59.448-3.651c10.974-.677 21.984 2.823 30.005 10.349 3.891 3.641 9.11 5.875 14.86 5.875h56.271v-6.213h-48.329a3.104 3.104 0 0 1-2.198-5.303 3.084 3.084 0 0 1 2.198-.911h48.329v-6.219h-48.329a3.102 3.102 0 0 1-2.198-5.297 3.084 3.084 0 0 1 2.198-.911h48.329v-6.214h-48.329a3.107 3.107 0 1 1 0-6.213h48.329v-6.214h-56.271c-5.75 0-10.969 2.235-14.86 5.88-8.021 7.521-19.031 11.021-30.005 10.344l-54.37-3.338c17.854-49.24 65.037-84.417 120.443-84.417 70.74 0 128.089 57.349 128.089 128.089 0 3.927-.188 7.807-.537 11.64l9-.552a15.97 15.97 0 0 1 1.214-.042c3.739 0 7.229 1.053 10.208 2.875.422-4.583.651-9.229.651-13.921 0-76.532-57.839-139.532-132.182-147.714Z" />
    </g>
    <mask id="e" width="297" height="168" x="101" y="230" maskUnits="userSpaceOnUse"
      style="mask-type:luminance">
      <path fill="#fff" d="M101.333 230.667h296v167.234h-296V230.667Z" />
    </mask>
    <g mask="url(#e)">
      <path fill="#100F0D"
        d="M396.349 275.5c-1.75-3.229-5.255-5.349-9.198-5.104l-10.88.672-60.203 3.692c-10.38.641-20.672-2.729-28.433-9.645-7.234-6.454-18.974-10.646-32.234-10.646-21.979 0-39.807 11.536-39.807 25.781 0 14.229 17.828 25.771 39.807 25.771 13.26 0 25-4.198 32.234-10.646 7.761-6.922 18.053-10.286 28.433-9.651l55.745 3.427c-16.709 51.313-64.928 88.401-121.813 88.401-70.745 0-128.089-57.349-128.089-128.088 0-5.303.329-10.521.954-15.651l-8.766.536c-.406.026-.807.036-1.214.036a19.462 19.462 0 0 1-10.416-3.01 150.225 150.225 0 0 0-1.094 18.089c0 82.083 66.536 148.625 148.625 148.625 69.01 0 127.016-47.047 143.745-110.813h.015a144.69 144.69 0 0 0 2.589-11.776Z" />
    </g>
    <mask id="f" width="24" height="24" x="430" y="246" maskUnits="userSpaceOnUse"
      style="mask-type:luminance">
      <path fill="#fff" d="M430.172 246.776h23.083v23.083h-23.083v-23.083Z" />
    </mask>
    <g mask="url(#f)">
      <mask id="g" width="24" height="24" x="430" y="246" maskUnits="userSpaceOnUse"
        style="mask-type:luminance">
        <path fill="#fff"
          d="M441.714 246.776c-6.375 0-11.542 5.167-11.542 11.542s5.167 11.541 11.542 11.541 11.541-5.166 11.541-11.541-5.166-11.542-11.541-11.542Z" />
      </mask>
      <g mask="url(#g)">
        <path fill="#1A1A1A" d="M430.172 246.776h23.083v23.083h-23.083v-23.083Z" />
      </g>
    </g>
    <mask id="h" width="24" height="24" x="46" y="250" maskUnits="userSpaceOnUse"
      style="mask-type:luminance">
      <path fill="#fff" d="M46.745 250h23.083v23.083H46.745V250Z" />
    </mask>
    <g mask="url(#h)">
      <mask id="i" width="24" height="24" x="46" y="250" maskUnits="userSpaceOnUse"
        style="mask-type:luminance">
        <path fill="#fff"
          d="M58.286 250c-6.375 0-11.541 5.167-11.541 11.542s5.166 11.541 11.541 11.541 11.542-5.166 11.542-11.541S64.661 250 58.286 250Z" />
      </mask>
      <g mask="url(#i)">
        <path fill="#1A1A1A" d="M46.745 250h23.083v23.083H46.745V250Z" />
      </g>
    </g>
    <path fill="#000"
      d="m73.285 225.674-.48 4.563-28.874-3.084a14.759 14.759 0 0 0-.73 3.146l.792 6.5-3.375-.083 2.604-24.208 3.292.604-2.125 6.229a15.074 15.074 0 0 0 .02 3.25l28.876 3.083ZM63.219 195.858l14.812 4.646-1.375 4.375-29.875-9.375 1.375-4.375 13.355 4.187 4.291-13.667-13.354-4.187 1.375-4.375 29.875 9.375-1.375 4.375-14.813-4.646-4.291 13.667ZM89.818 168.844l-27.416-15.146 9.166-16.604 2.563 1.959-5.542 7c-.75 1.364-1.338 2.989-1.77 4.875l10.062 5.541 5.083-9.187 1.563.875-5.084 9.187 12.084 6.667 5.833-13.542 2.52 1.959-9.062 16.416ZM137.03 109.643l-.583.541-32.855-4.666-.125.125 17.396 18.5-1.521 1.416-21.437-22.812 2.542-2.396 28.708 4.229.146-.125-15.584-16.562 1.521-1.438 21.792 23.188ZM152.282 61.627l9.896 16.459c1.5 2.515 2.375 4.573 2.625 6.166.084.709.073 1.584-.021 2.625-.098 1.032-.364 1.959-.791 2.792-1.182 2.115-3.115 3.969-5.792 5.562-6.698 4.032-12.114 2.6-16.25-4.291l-10.208-16.98 4.146-2.479 10.395 17.313c.469.781.86 1.406 1.167 1.875.318.474.875 1.083 1.667 1.833.791.74 1.568 1.245 2.333 1.521.776.266 1.776.323 3 .167 1.219-.151 2.49-.63 3.813-1.438 5.052-3.026 5.963-7.24 2.729-12.646L150.512 62.69l1.77-1.063ZM191.509 79.012l-4.291 1.541-9.854-27.312c-1.094.14-2.146.39-3.146.75l-5.521 3.541-1.396-3.083 22.896-8.25.917 3.25-6.542.792c-1 .364-1.974.849-2.917 1.458l9.854 27.313ZM214.064 57.516l2.292 14.77-4.584.709-4.791-30.938 10.104-1.562c3.135-.485 5.823-.177 8.062.916 2.235 1.084 3.526 2.771 3.875 5.063.36 2.281-.166 4.208-1.583 5.792-1.406 1.573-3.432 2.823-6.083 3.75l14.875 13.187-5.334 1.521-13.229-13.77-3.604.562Zm-.208-1.396 2.979-.459c5.609-.875 8.073-3.526 7.396-7.958-.125-.734-.448-1.547-.959-2.437-1.031-1.844-2.76-2.901-5.187-3.167a25.625 25.625 0 0 0-6.125 1.77l1.896 12.25ZM253.255 37.958l-.229 31.312-4.354-.042.229-31.312 4.354.042ZM279.243 71.732l-4.521-.708 4.479-28.687a13.886 13.886 0 0 0-3.104-.875l-6.542.458.25-3.354 24.063 3.75-.771 3.27-6.104-2.437a15.208 15.208 0 0 0-3.271-.104l-4.479 28.687ZM313.932 48.065l-9.333 29.896-4.146-1.292 9.333-29.896 4.146 1.292ZM346.367 61.045c3.651 1.875 6.052 4.625 7.208 8.25 1.151 3.625.636 7.573-1.541 11.833-1.417 2.75-3.136 4.906-5.146 6.48-2.016 1.567-4.084 2.52-6.209 2.853-4.114.636-7.979.026-11.604-1.833-3.614-1.849-5.979-4.594-7.104-8.229-1.125-3.635-.599-7.594 1.583-11.875 1.136-2.208 2.469-4.031 4-5.48 1.542-1.457 3.11-2.484 4.709-3.082a15.964 15.964 0 0 1 5.021-1.021c3.166-.084 6.192.62 9.083 2.104Zm-20.542 19.25a8.632 8.632 0 0 0 1.459 4.375c.885 1.317 2.135 2.385 3.75 3.208 1.609.834 3.255 1.167 4.937 1a9.334 9.334 0 0 0 4.583-1.687c2.792-1.891 4.964-4.355 6.521-7.396 1.901-3.719 2.693-7.104 2.375-10.146-.333-3.401-2.411-6.083-6.229-8.042-3.224-.427-6.135.162-8.729 1.771-2.599 1.6-4.646 3.87-6.146 6.813-1.849 3.599-2.687 6.968-2.521 10.104ZM372.168 118.473l-.625-.5.687-33.188-.146-.104-16.271 19.5-1.583-1.333 20.063-24.042 2.687 2.229-.75 29 .146.125 14.583-17.458 1.604 1.333-20.395 24.438ZM394.865 144.1l26.625-16.48 4.708 7.584c1.901 3.083 2.896 5.859 2.979 8.333.094 2.484-.906 4.375-3 5.667-1.474.901-3.078 1.172-4.812.812-1.724-.364-3.433-1.286-5.125-2.771 1.041 2.709 1.343 5.052.916 7.042-.416 1.984-1.333 3.417-2.75 4.292-1.416.875-2.854 1.26-4.312 1.166-1.448-.083-2.792-.531-4.042-1.333-2.531-1.583-4.531-3.573-6-5.958l-5.187-8.354Zm16.854-5.042 1.791 2.896c1.511 2.442 3.136 3.859 4.875 4.25 1.75.385 3.438.073 5.063-.938 1.094-.682 1.865-1.666 2.312-2.958.443-1.292.428-2.839-.041-4.646a20.81 20.81 0 0 0-4.063-4.75l-9.937 6.146Zm-1.167.729-11.458 7.083c.25 1.026.927 2.438 2.041 4.23 1.11 1.791 2.589 3.072 4.438 3.854 1.859.791 3.672.635 5.437-.459 1.776-1.099 2.792-2.781 3.042-5.041.261-2.25-.271-4.453-1.604-6.604l-1.896-3.063ZM447.734 178.828c1.344 3.859 1.193 7.5-.458 10.916-1.657 3.427-4.745 5.938-9.271 7.521-2.917 1.026-5.646 1.406-8.188 1.146-2.541-.25-4.698-.99-6.458-2.208-3.432-2.365-5.823-5.459-7.167-9.292-1.349-3.833-1.182-7.458.5-10.875 1.677-3.417 4.792-5.917 9.334-7.5 2.343-.818 4.583-1.229 6.708-1.229s3.969.343 5.542 1.021a16.215 16.215 0 0 1 4.312 2.708c2.344 2.125 4.063 4.719 5.146 7.792Zm-28.146-.23a8.643 8.643 0 0 0-1.979 4.188c-.266 1.568-.099 3.208.5 4.917.609 1.708 1.573 3.083 2.896 4.125a9.48 9.48 0 0 0 4.5 1.937c3.318.542 6.588.25 9.812-.875 3.943-1.391 6.855-3.292 8.73-5.708 2.083-2.698 2.416-6.073 1-10.125-2.032-2.542-4.537-4.125-7.521-4.75-2.99-.61-6.042-.37-9.167.729-3.823 1.333-6.745 3.187-8.771 5.562ZM442.813 225.02l-15.229 14.271-.708-5.855 12.625-10.479-14.896-8.291-.354-2.875 16.5 9.916 14.646-13.125.708 5.875-11.958 9.375 14.083 8.188.354 2.875-15.771-9.875ZM80.517 357.571l-1.188-1.958 4.98-3 5.666-9.646 1.333 2.187-5.437 8.375 9.812-1.145.604 1.02-10.687 1.105-5.083 3.062ZM106.427 366.897c1.276 1.614 1.797 3.359 1.562 5.25-.239 1.885-1.291 3.567-3.166 5.041-1.209.959-2.438 1.573-3.688 1.855-1.25.291-2.385.296-3.396.02-2.015-.573-3.656-1.656-4.916-3.25-1.25-1.599-1.75-3.343-1.5-5.229.26-1.885 1.333-3.567 3.208-5.041.984-.776 1.98-1.334 2.98-1.667 1.01-.344 1.937-.484 2.77-.417a7.871 7.871 0 0 1 2.5.604c1.443.615 2.656 1.558 3.646 2.834Zm-13.334 4.416a4.41 4.41 0 0 0-.25 2.313c.136.776.485 1.521 1.042 2.229.552.719 1.23 1.214 2.02 1.479a5.055 5.055 0 0 0 2.438.229c1.651-.291 3.151-.968 4.5-2.02 1.636-1.292 2.709-2.667 3.209-4.125.552-1.599.172-3.235-1.146-4.917-1.375-.875-2.823-1.214-4.333-1.021-1.516.182-2.917.781-4.209 1.792-1.583 1.25-2.677 2.593-3.27 4.041ZM125.702 388.232l-6.75 6.834c-1.015 1.041-1.89 1.713-2.625 2.02-.333.136-.76.25-1.271.334a3.93 3.93 0 0 1-1.5-.042c-1.156-.292-2.286-.99-3.395-2.083-2.782-2.74-2.75-5.542.083-8.417l6.937-7.042 1.709 1.688-7.084 7.187c-.323.323-.578.584-.77.792-.183.208-.407.552-.667 1.042-.25.484-.396.927-.438 1.333-.031.401.063.885.271 1.458.219.568.61 1.125 1.167 1.667 2.094 2.068 4.255 1.984 6.479-.25l7.125-7.25.729.729ZM130.94 403.395l-4.541 5.916-1.834-1.416 9.542-12.396 4.042 3.104c1.26.974 2.073 2.052 2.437 3.229.375 1.167.208 2.219-.5 3.146-.698.917-1.573 1.396-2.625 1.437-1.057.032-2.208-.276-3.458-.916l.354 9.916-2.375-1.375.417-9.541-1.459-1.104Zm.438-.563 1.208.917c2.25 1.739 4.052 1.724 5.417-.042.234-.318.416-.729.541-1.229.318-1 .105-1.984-.645-2.958a12.056 12.056 0 0 0-2.75-1.584l-3.771 4.896ZM162.397 423.399l-3.417 6.959-2.063-1.021 6.917-14.042 2.063 1.021-3.105 6.292 6.438 3.166 3.104-6.291 2.042 1-6.917 14.041-2.042-1 3.417-6.958-6.437-3.167ZM179.783 439.631l5.208-14.75 8.938 3.146-.771 1.396-3.875-2.146c-.739-.25-1.583-.406-2.542-.479l-1.916 5.437 4.958 1.75-.292.834-4.958-1.75-2.292 6.5 7.146 1.75-.75 1.416-8.854-3.104ZM199.241 445.935l10.375-14.062.354.083 3.312 17.167-2.52-.563-.792-4.541-6.854-1.563-2.625 3.771-1.25-.292Zm4.458-4.27 6.104 1.395-1.354-8.166-4.75 6.771ZM224.54 450.817l1.729-15.542 2.312.271-1.583 14.271c.917.375 1.667.599 2.25.667l4.333-.25-.458 1.541-8.583-.958ZM250.311 452.461l-2.292-.021.084-14.5a6.961 6.961 0 0 0-1.604-.188l-3.188.709-.146-1.688 12.167.063-.104 1.687-3.229-.75a7.1 7.1 0 0 0-1.605.188l-.083 14.5ZM268.088 443.896l.875 7.709-2.291.271-1.75-15.542 2.291-.271.792 6.958 7.125-.791-.792-6.959 2.271-.25 1.75 15.542-2.271.25-.875-7.708-7.125.791ZM312.606 438.542l1.146-12.98 2.292-.77 5.812 14.541-2.292.771-4.895-12.521-.084.042-1.354 14.625-.312.104-9.625-10.375-.084.021 3.5 12.437-1 .334-4.166-15.104 2.062-.709 9 9.584ZM332.43 434.874l-.833-17.479.312-.146 13.417 11.229-2.312 1.146-3.48-3.021-6.291 3.125.333 4.584-1.146.562Zm.75-6.104 5.604-2.792-6.187-5.5.583 8.292ZM359.622 419.76l-1.916 1.25-7.896-12.166c-.511.182-1 .416-1.458.708l-2.271 2.354-1.042-1.333 10.208-6.625.834 1.479-3.104 1.125c-.443.292-.86.641-1.25 1.042l7.895 12.166ZM377.04 406.926l-1.771 1.438-9.167-11.229a7.274 7.274 0 0 0-1.333.875l-2.021 2.583-1.188-1.229 9.417-7.688 1 1.375-2.958 1.479a8.691 8.691 0 0 0-1.146 1.167l9.167 11.229ZM389.235 396.062l-11.167-10.958 6.646-6.75.979 1.271-3.583 2.604c-.542.557-1.047 1.265-1.521 2.125l4.104 4.021 3.667-3.75.646.625-3.667 3.75 4.917 4.833 4.604-5.729.958 1.271-6.583 6.687ZM399.907 373.246l5.895 4.563-1.416 1.812-12.354-9.583 3.125-4.021c.974-1.26 2.052-2.073 3.229-2.437 1.182-.375 2.229-.198 3.146.52.916.709 1.39 1.584 1.416 2.625.032 1.042-.276 2.198-.916 3.459l9.916-.313-1.396 2.354-9.52-.437-1.125 1.458Zm-.563-.437.917-1.209c1.739-2.234 1.724-4.041-.042-5.416-.302-.235-.698-.422-1.187-.563-1-.333-1.985-.125-2.959.625a11.809 11.809 0 0 0-1.604 2.771l4.875 3.792ZM408.321 351.929c.599.364 1.292.468 2.084.312a8.401 8.401 0 0 0 2.354-.896 72.175 72.175 0 0 1 2.375-1.291 7.363 7.363 0 0 1 2.479-.792c.875-.125 1.656.021 2.354.437 1.11.667 1.761 1.625 1.959 2.875.208 1.24-.105 2.552-.938 3.938-.833 1.39-1.937 2.604-3.312 3.646l-.938-.563c1.526-.958 2.583-1.916 3.167-2.875.583-.969.797-1.864.646-2.687-.141-.834-.636-1.506-1.48-2.021-.557-.333-1.203-.417-1.937-.25a7.664 7.664 0 0 0-2.188.896c-.718.416-1.458.833-2.208 1.25a6.824 6.824 0 0 1-2.375.771c-.833.114-1.646-.073-2.437-.563-.792-.484-1.313-1.281-1.563-2.396-.26-1.125.031-2.385.875-3.791.557-.917 1.469-1.948 2.729-3.105l1.25 1.042c-1.875 1.349-3.198 2.667-3.979 3.958-.094.917.266 1.62 1.083 2.105Z" />
  </g>
  <defs>
    <clipPath id="a">
      <path fill="#fff" d="M0 0h500v500H0z" />
    </clipPath>
  </defs>
</svg>
